<?xml version="1.0" encoding="UTF-8"?>
<svg id="Layer_12" xmlns="http://www.w3.org/2000/svg" version="1.1" viewBox="0 0 1123.5 1123.5">
  <!-- Generator: Adobe Illustrator 30.2.1, SVG Export Plug-In . SVG Version: 2.1.1 Build 1)  -->
  <defs>
    <style>
      .st0 {
        fill: #fff;
      }
    </style>
  </defs>
  <g id="Background">
    <g>
      <polygon class="st0" points="280.9 659.3 411.4 659.3 346.8 546.1 280.9 659.3"/>
      <polygon class="st0" points="184 674.2 160.3 711.5 160.3 803.5 247.8 714.1 293.5 754 351.6 752.9 284.1 674.2 184 674.2"/>
      <path class="st0" d="M729.5,387.5h-148.5l-165.2-67.6,41.8,73.1-160.7,88.8-92.7,160.1h50.1l93.1-159.9,91.2,159.8h94.8l-28.7,49.2,62.3,109.2,144-248-40.7-71.2,117.9.3,40.8,71.4h-80.7l-112,191.6,33.6,57.3,92.8-158.3,19.5-.7c52.5,0,181-12.2,181-64.7,0-93.4-140.3-190.6-233.7-190.6h0ZM867.2,596.4c0,7.3-6,13.4-13.4,13.4h-12.4c-7.3,0-13.4-6-13.4-13.4v-12.4c0-7.3,6-13.4,13.4-13.4h12.4c7.3,0,13.4,6,13.4,13.4v12.4Z"/>
    </g>
  </g>
</svg>