<?xml version="1.0" encoding="UTF-8"?>
<svg id="Layer_12" data-name="Layer 12" xmlns="http://www.w3.org/2000/svg" viewBox="0 0 1123.51 1123.51">
  <defs>
    <style>
      .cls-1 {
        fill: #ea6525;
      }
    </style>
  </defs>
  <g id="Background">
    <g>
      <polygon class="cls-1" points="280.89 659.28 411.39 659.28 346.82 546.11 280.89 659.28"/>
      <polygon class="cls-1" points="184.03 674.16 160.33 711.49 160.33 803.54 247.78 714.08 293.52 754.01 351.59 752.91 284.09 674.16 184.03 674.16"/>
      <path class="cls-1" d="M729.47,387.54h-148.51l-165.22-67.57,41.78,73.15-160.67,88.8-92.74,160.09h50.05l93.12-159.86,91.17,159.81h94.79l-28.66,49.19,62.28,109.17,143.97-248-40.71-71.18,117.91.27,40.77,71.4h-80.65l-111.97,191.64,33.61,57.33,92.81-158.27,19.53-.68c52.5,0,181.04-12.16,181.04-64.66,0-93.39-140.31-190.63-233.7-190.63ZM867.15,596.39c0,7.35-6.01,13.36-13.36,13.36h-12.42c-7.35,0-13.36-6.01-13.36-13.36v-12.42c0-7.35,6.01-13.36,13.36-13.36h12.42c7.35,0,13.36,6.01,13.36,13.36v12.42Z"/>
    </g>
  </g>
</svg>